<svg xmlns="http://www.w3.org/2000/svg" viewBox="0 0 1240 730" width="1240" height="730" style="background:#ffffff; font-family: 'Segoe UI', system-ui, -apple-system, Roboto, Helvetica, Arial, sans-serif;">
  <defs>
    <filter id="shadow" x="-5%" y="-5%" width="110%" height="110%">
      <feDropShadow dx="2" dy="3" stdDeviation="3" flood-opacity="0.08"/>
    </filter>
    <marker id="arrowhead" markerWidth="10" markerHeight="7" refX="9" refY="3.5" orient="auto">
      <polygon points="0 0, 10 3.5, 0 7" fill="#1e293b"/>
    </marker>
    <marker id="arrowhead-blue" markerWidth="10" markerHeight="7" refX="9" refY="3.5" orient="auto">
      <polygon points="0 0, 10 3.5, 0 7" fill="#0284c7"/>
    </marker>
    <marker id="arrowhead-purple" markerWidth="10" markerHeight="7" refX="9" refY="3.5" orient="auto">
      <polygon points="0 0, 10 3.5, 0 7" fill="#9333ea"/>
    </marker>
    <marker id="arrowhead-green" markerWidth="10" markerHeight="7" refX="9" refY="3.5" orient="auto">
      <polygon points="0 0, 10 3.5, 0 7" fill="#16a34a"/>
    </marker>
  </defs>

  <!-- Title -->
  <text x="620" y="55" font-size="26" font-weight="bold" fill="#0f172a" text-anchor="middle">SIH26123 — Decentralized AMR Fleet Architecture</text>

  <!-- AMR #1 Container -->
  <rect x="50" y="90" width="370" height="470" rx="16" fill="#f0f9ff" stroke="#0284c7" stroke-width="2" filter="url(#shadow)"/>
  <text x="75" y="125" font-size="16" font-weight="bold" fill="#0369a1">AMR #1 — Edge Node (Raspberry Pi / Jetson)</text>

  <!-- AMR #1 Inner Nodes -->
  <rect x="75" y="150" width="145" height="52" rx="10" fill="#bae6fd" stroke="#0284c7" stroke-width="1.5"/>
  <text x="147" y="172" font-size="13" font-weight="600" fill="#0c4a6e" text-anchor="middle">Task Bidder</text>
  <text x="147" y="190" font-size="11" fill="#0369a1" text-anchor="middle">(contract-net)</text>

  <rect x="250" y="150" width="145" height="52" rx="10" fill="#bae6fd" stroke="#0284c7" stroke-width="1.5"/>
  <text x="322" y="172" font-size="13" font-weight="600" fill="#0c4a6e" text-anchor="middle">Localization</text>
  <text x="322" y="190" font-size="11" fill="#0369a1" text-anchor="middle">(grid pose)</text>

  <rect x="145" y="245" width="180" height="54" rx="10" fill="#bae6fd" stroke="#0284c7" stroke-width="1.5"/>
  <text x="235" y="267" font-size="13" font-weight="600" fill="#0c4a6e" text-anchor="middle">Planner</text>
  <text x="235" y="286" font-size="11" fill="#0369a1" text-anchor="middle">Space-Time A* / D* Lite</text>

  <rect x="125" y="340" width="220" height="56" rx="10" fill="#7dd3fc" stroke="#0284c7" stroke-width="1.5"/>
  <text x="235" y="362" font-size="14" font-weight="600" fill="#0c4a6e" text-anchor="middle">Traffic Negotiator</text>
  <text x="235" y="382" font-size="11" fill="#0369a1" text-anchor="middle">reservations + wait-for graph</text>

  <rect x="160" y="445" width="150" height="48" rx="10" fill="#38bdf8" stroke="#0284c7" stroke-width="1.5"/>
  <text x="235" y="475" font-size="14" font-weight="700" fill="#0c4a6e" text-anchor="middle">Motion Controller</text>

  <!-- AMR #1 Internal Connectors -->
  <line x1="147" y1="202" x2="200" y2="245" stroke="#0f172a" stroke-width="1.5" marker-end="url(#arrowhead)"/>
  <line x1="322" y1="202" x2="270" y2="245" stroke="#0f172a" stroke-width="1.5" marker-end="url(#arrowhead)"/>
  <line x1="235" y1="299" x2="235" y2="340" stroke="#0f172a" stroke-width="1.5" marker-end="url(#arrowhead)"/>
  <line x1="235" y1="396" x2="235" y2="445" stroke="#0f172a" stroke-width="1.5" marker-end="url(#arrowhead)"/>

  <!-- AMR #2 Container -->
  <rect x="820" y="90" width="370" height="470" rx="16" fill="#f0f9ff" stroke="#0284c7" stroke-width="2" filter="url(#shadow)"/>
  <text x="845" y="125" font-size="16" font-weight="bold" fill="#0369a1">AMR #2 — Edge Node</text>

  <!-- AMR #2 Inner Nodes -->
  <rect x="845" y="150" width="145" height="52" rx="10" fill="#bae6fd" stroke="#0284c7" stroke-width="1.5"/>
  <text x="917" y="181" font-size="13" font-weight="600" fill="#0c4a6e" text-anchor="middle">Task Bidder</text>

  <rect x="1020" y="150" width="145" height="52" rx="10" fill="#bae6fd" stroke="#0284c7" stroke-width="1.5"/>
  <text x="1092" y="181" font-size="13" font-weight="600" fill="#0c4a6e" text-anchor="middle">Localization</text>

  <rect x="915" y="245" width="180" height="54" rx="10" fill="#bae6fd" stroke="#0284c7" stroke-width="1.5"/>
  <text x="1005" y="267" font-size="13" font-weight="600" fill="#0c4a6e" text-anchor="middle">Planner</text>
  <text x="1005" y="286" font-size="11" fill="#0369a1" text-anchor="middle">A* / D* Lite</text>

  <rect x="905" y="340" width="200" height="56" rx="10" fill="#7dd3fc" stroke="#0284c7" stroke-width="1.5"/>
  <text x="1005" y="373" font-size="14" font-weight="600" fill="#0c4a6e" text-anchor="middle">Traffic Negotiator</text>

  <rect x="930" y="445" width="150" height="48" rx="10" fill="#38bdf8" stroke="#0284c7" stroke-width="1.5"/>
  <text x="1005" y="475" font-size="14" font-weight="700" fill="#0c4a6e" text-anchor="middle">Controller</text>

  <!-- AMR #2 Internal Connectors -->
  <line x1="917" y1="202" x2="970" y2="245" stroke="#0f172a" stroke-width="1.5" marker-end="url(#arrowhead)"/>
  <line x1="1092" y1="202" x2="1040" y2="245" stroke="#0f172a" stroke-width="1.5" marker-end="url(#arrowhead)"/>
  <line x1="1005" y1="299" x2="1005" y2="340" stroke="#0f172a" stroke-width="1.5" marker-end="url(#arrowhead)"/>
  <line x1="1005" y1="396" x2="1005" y2="445" stroke="#0f172a" stroke-width="1.5" marker-end="url(#arrowhead)"/>

  <!-- Middle Nodes -->
  <rect x="445" y="300" width="175" height="80" rx="10" fill="#f0f9ff" stroke="#0284c7" stroke-width="1.5"/>
  <text x="532" y="325" font-size="13" font-weight="bold" fill="#0369a1" text-anchor="middle">AMR #3 ... #N — Edge Nodes</text>
  <text x="532" y="347" font-size="11" fill="#475569" text-anchor="middle">same stack per robot</text>
  <text x="532" y="363" font-size="11" fill="#475569" text-anchor="middle">(self-contained process)</text>

  <rect x="635" y="300" width="165" height="80" rx="10" fill="#faf5ff" stroke="#9333ea" stroke-width="1.5"/>
  <text x="717" y="328" font-size="13" font-weight="bold" fill="#7e22ce" text-anchor="middle">Scenario Injector</text>
  <text x="717" y="352" font-size="11" fill="#6b21a8" text-anchor="middle">blocked aisle · robot kill</text>
  <text x="717" y="368" font-size="11" fill="#6b21a8" text-anchor="middle">task bursts</text>

  <!-- P2P Mesh Layer (Wide Pill) -->
  <rect x="365" y="445" width="510" height="64" rx="20" fill="#ffedd5" stroke="#ea580c" stroke-width="2" filter="url(#shadow)"/>
  <text x="620" y="471" font-size="14" font-weight="bold" fill="#c2410c" text-anchor="middle">P2P MESH (ZeroMQ PUB/SUB + UDP discovery)</text>
  <text x="620" y="492" font-size="12" fill="#9a3412" text-anchor="middle">pose 10 Hz · heartbeat 2 Hz · intent · reservations · auction/bids</text>

  <!-- Fleet Dashboard -->
  <rect x="410" y="580" width="420" height="78" rx="10" fill="#dcfce7" stroke="#16a34a" stroke-width="2" filter="url(#shadow)"/>
  <text x="620" y="605" font-size="14" font-weight="bold" fill="#15803d" text-anchor="middle">Fleet Dashboard</text>
  <text x="620" y="626" font-size="12" fill="#166534" text-anchor="middle">positions · battery · reserved windows · live metrics</text>
  <text x="620" y="644" font-size="12" font-weight="600" fill="#14532d" text-anchor="middle">READ-ONLY observer — never coordinates</text>

  <!-- Cross-Mesh Connectors -->
  <!-- AMR 1 to Mesh -->
  <line x1="280" y1="396" x2="460" y2="445" stroke="#0284c7" stroke-width="2" marker-end="url(#arrowhead-blue)"/>
  <rect x="300" y="405" width="115" height="18" rx="4" fill="#ffffff" stroke="#e2e8f0" stroke-width="1"/>
  <text x="357" y="418" font-size="10.5" font-weight="600" fill="#0369a1" text-anchor="middle">publish / subscribe</text>

  <!-- AMR 3 to Mesh -->
  <line x1="532" y1="380" x2="532" y2="445" stroke="#0284c7" stroke-width="2" marker-end="url(#arrowhead-blue)"/>

  <!-- Injector to Mesh -->
  <line x1="717" y1="380" x2="685" y2="445" stroke="#9333ea" stroke-width="2" stroke-dasharray="4,4" marker-end="url(#arrowhead-purple)"/>
  <rect x="705" y="405" width="55" height="18" rx="4" fill="#ffffff" stroke="#e2e8f0" stroke-width="1"/>
  <text x="732" y="418" font-size="10.5" font-weight="600" fill="#7e22ce" text-anchor="middle">injects</text>

  <!-- AMR 2 to Mesh -->
  <line x1="950" y1="396" x2="780" y2="445" stroke="#0284c7" stroke-width="2" marker-end="url(#arrowhead-blue)"/>

  <!-- Mesh to Dashboard -->
  <line x1="620" y1="509" x2="620" y2="580" stroke="#16a34a" stroke-width="2" stroke-dasharray="6,4" marker-end="url(#arrowhead-green)"/>
  <rect x="585" y="534" width="70" height="18" rx="4" fill="#ffffff" stroke="#e2e8f0" stroke-width="1"/>
  <text x="620" y="547" font-size="10.5" font-weight="600" fill="#15803d" text-anchor="middle">subscribe</text>

</svg>